<mxfile host="65bd71144e" pages="3">
    <diagram id="hFE3Dc1cULiNLT63wBjm" name="Architecture">
        <mxGraphModel dx="799" dy="481" grid="1" gridSize="10" guides="1" tooltips="1" connect="1" arrows="1" fold="1" page="1" pageScale="1" pageWidth="850" pageHeight="1100" math="0" shadow="0">
            <root>
                <mxCell id="0"/>
                <mxCell id="1" parent="0"/>
                <mxCell id="Tncqfuv_ViYUB90Z66oM-6" value="OpenWeatherMap API" style="shape=image;html=1;verticalAlign=top;verticalLabelPosition=bottom;labelBackgroundColor=#ffffff;imageAspect=0;aspect=fixed;image=https://cdn2.iconfinder.com/data/icons/weather-color-2/500/weather-22-128.png" parent="1" vertex="1">
                    <mxGeometry x="370" y="95" width="90" height="90" as="geometry"/>
                </mxCell>
                <mxCell id="Tncqfuv_ViYUB90Z66oM-7" style="edgeStyle=orthogonalEdgeStyle;rounded=0;orthogonalLoop=1;jettySize=auto;html=1;" parent="1" source="Tncqfuv_ViYUB90Z66oM-3" target="Tncqfuv_ViYUB90Z66oM-6" edge="1">
                    <mxGeometry relative="1" as="geometry"/>
                </mxCell>
                <mxCell id="nZ3t9EF9E6OiWVgkukPn-1" value="" style="group" parent="1" vertex="1" connectable="0">
                    <mxGeometry x="30" y="40" width="240" height="240" as="geometry"/>
                </mxCell>
                <mxCell id="Tncqfuv_ViYUB90Z66oM-3" value="" style="whiteSpace=wrap;html=1;aspect=fixed;" parent="nZ3t9EF9E6OiWVgkukPn-1" vertex="1">
                    <mxGeometry x="40" width="200" height="200" as="geometry"/>
                </mxCell>
                <mxCell id="Tncqfuv_ViYUB90Z66oM-1" value="" style="shape=image;html=1;verticalAlign=top;verticalLabelPosition=bottom;labelBackgroundColor=#ffffff;imageAspect=0;aspect=fixed;image=https://cdn0.iconfinder.com/data/icons/long-shadow-web-icons/512/angular-symbol-128.png" parent="nZ3t9EF9E6OiWVgkukPn-1" vertex="1">
                    <mxGeometry x="80" y="36" width="128" height="128" as="geometry"/>
                </mxCell>
                <mxCell id="Tncqfuv_ViYUB90Z66oM-2" value="" style="shape=image;html=1;verticalAlign=top;verticalLabelPosition=bottom;labelBackgroundColor=#ffffff;imageAspect=0;aspect=fixed;image=https://cdn1.iconfinder.com/data/icons/unicons-line-vol-3/24/docker-128.png" parent="nZ3t9EF9E6OiWVgkukPn-1" vertex="1">
                    <mxGeometry y="160" width="80" height="80" as="geometry"/>
                </mxCell>
                <mxCell id="Tncqfuv_ViYUB90Z66oM-4" value="Containerized Angular App" style="text;html=1;align=center;verticalAlign=middle;resizable=0;points=[];autosize=1;strokeColor=none;fillColor=none;" parent="nZ3t9EF9E6OiWVgkukPn-1" vertex="1">
                    <mxGeometry x="55" y="210" width="170" height="30" as="geometry"/>
                </mxCell>
            </root>
        </mxGraphModel>
    </diagram>
    <diagram id="9b2gZ9CNs3ELFO-NLqMg" name="UI">
        <mxGraphModel dx="799" dy="481" grid="1" gridSize="10" guides="1" tooltips="1" connect="1" arrows="1" fold="1" page="1" pageScale="1" pageWidth="850" pageHeight="1100" math="0" shadow="0">
            <root>
                <mxCell id="0"/>
                <mxCell id="1" parent="0"/>
                <mxCell id="2GlAXnnRVualahAmpI7M-1" value="" style="strokeWidth=1;shadow=0;dashed=0;align=center;html=1;shape=mxgraph.mockup.containers.browserWindow;rSize=0;strokeColor=#666666;strokeColor2=#008cff;strokeColor3=#c4c4c4;mainText=,;recursiveResize=0;" parent="1" vertex="1">
                    <mxGeometry x="30" y="80" width="720" height="490" as="geometry"/>
                </mxCell>
                <mxCell id="2GlAXnnRVualahAmpI7M-2" value="Page 1" style="strokeWidth=1;shadow=0;dashed=0;align=center;html=1;shape=mxgraph.mockup.containers.anchor;fontSize=17;fontColor=#666666;align=left;" parent="2GlAXnnRVualahAmpI7M-1" vertex="1">
                    <mxGeometry x="60" y="12" width="110" height="26" as="geometry"/>
                </mxCell>
                <mxCell id="2GlAXnnRVualahAmpI7M-3" value="https://www.weatherbuddy.io" style="strokeWidth=1;shadow=0;dashed=0;align=center;html=1;shape=mxgraph.mockup.containers.anchor;rSize=0;fontSize=17;fontColor=#666666;align=left;" parent="2GlAXnnRVualahAmpI7M-1" vertex="1">
                    <mxGeometry x="130" y="60" width="250" height="26" as="geometry"/>
                </mxCell>
                <mxCell id="2GlAXnnRVualahAmpI7M-6" value="" style="group" parent="2GlAXnnRVualahAmpI7M-1" vertex="1" connectable="0">
                    <mxGeometry x="200" y="150" width="320" height="30" as="geometry"/>
                </mxCell>
                <mxCell id="2GlAXnnRVualahAmpI7M-4" value="Search by city, zip code, or lat/long" style="strokeWidth=1;shadow=0;dashed=0;align=center;html=1;shape=mxgraph.mockup.text.textBox;fontColor=#666666;align=left;fontSize=17;spacingLeft=4;spacingTop=-3;strokeColor=#666666;mainText=" parent="2GlAXnnRVualahAmpI7M-6" vertex="1">
                    <mxGeometry width="320" height="30" as="geometry"/>
                </mxCell>
                <mxCell id="2GlAXnnRVualahAmpI7M-5" value="" style="shadow=0;dashed=0;html=1;strokeColor=none;fillColor=#4495D1;labelPosition=center;verticalLabelPosition=bottom;verticalAlign=top;align=center;outlineConnect=0;shape=mxgraph.veeam.magnifying_glass;pointerEvents=1;" parent="2GlAXnnRVualahAmpI7M-6" vertex="1">
                    <mxGeometry x="290" y="5" width="20" height="20" as="geometry"/>
                </mxCell>
                <mxCell id="2GlAXnnRVualahAmpI7M-7" value="Webpage will provide autocomplete options&lt;br&gt;&lt;br&gt;Using a regex, will determine if we're searching by city, zip, or lat/long&lt;br&gt;&lt;br&gt;Then will make appropriate call to weather API to retrieve current weather conditions" style="strokeWidth=1;shadow=0;dashed=0;align=center;html=1;shape=mxgraph.mockup.text.stickyNote2;fontColor=#666666;mainText=;fontSize=17;whiteSpace=wrap;fillColor=#ffffcc;strokeColor=#F62E00;" parent="1" vertex="1">
                    <mxGeometry x="750" y="190" width="260" height="360" as="geometry"/>
                </mxCell>
                <mxCell id="_APcH99rfO4cPpFRTlX_-1" value="" style="strokeWidth=1;shadow=0;dashed=0;align=center;html=1;shape=mxgraph.mockup.containers.browserWindow;rSize=0;strokeColor=#666666;strokeColor2=#008cff;strokeColor3=#c4c4c4;mainText=,;recursiveResize=0;" parent="1" vertex="1">
                    <mxGeometry x="30" y="630" width="720" height="490" as="geometry"/>
                </mxCell>
                <mxCell id="_APcH99rfO4cPpFRTlX_-2" value="Page 1" style="strokeWidth=1;shadow=0;dashed=0;align=center;html=1;shape=mxgraph.mockup.containers.anchor;fontSize=17;fontColor=#666666;align=left;" parent="_APcH99rfO4cPpFRTlX_-1" vertex="1">
                    <mxGeometry x="60" y="12" width="110" height="26" as="geometry"/>
                </mxCell>
                <mxCell id="_APcH99rfO4cPpFRTlX_-3" value="https://www.weatherbuddy.io" style="strokeWidth=1;shadow=0;dashed=0;align=center;html=1;shape=mxgraph.mockup.containers.anchor;rSize=0;fontSize=17;fontColor=#666666;align=left;" parent="_APcH99rfO4cPpFRTlX_-1" vertex="1">
                    <mxGeometry x="130" y="60" width="250" height="26" as="geometry"/>
                </mxCell>
                <mxCell id="_APcH99rfO4cPpFRTlX_-7" value="City Name&lt;br&gt;Current Time" style="text;html=1;strokeColor=none;fillColor=none;align=center;verticalAlign=middle;whiteSpace=wrap;rounded=0;" parent="_APcH99rfO4cPpFRTlX_-1" vertex="1">
                    <mxGeometry x="290" y="230" width="125" height="30" as="geometry"/>
                </mxCell>
                <mxCell id="_APcH99rfO4cPpFRTlX_-9" value="" style="group" parent="_APcH99rfO4cPpFRTlX_-1" vertex="1" connectable="0">
                    <mxGeometry x="192.5" y="160" width="320" height="30" as="geometry"/>
                </mxCell>
                <mxCell id="_APcH99rfO4cPpFRTlX_-10" value="Search by city, zip code, or lat/long" style="strokeWidth=1;shadow=0;dashed=0;align=center;html=1;shape=mxgraph.mockup.text.textBox;fontColor=#666666;align=left;fontSize=17;spacingLeft=4;spacingTop=-3;strokeColor=#666666;mainText=" parent="_APcH99rfO4cPpFRTlX_-9" vertex="1">
                    <mxGeometry width="320" height="30" as="geometry"/>
                </mxCell>
                <mxCell id="_APcH99rfO4cPpFRTlX_-11" value="" style="shadow=0;dashed=0;html=1;strokeColor=none;fillColor=#4495D1;labelPosition=center;verticalLabelPosition=bottom;verticalAlign=top;align=center;outlineConnect=0;shape=mxgraph.veeam.magnifying_glass;pointerEvents=1;" parent="_APcH99rfO4cPpFRTlX_-9" vertex="1">
                    <mxGeometry x="290" y="5" width="20" height="20" as="geometry"/>
                </mxCell>
                <mxCell id="_APcH99rfO4cPpFRTlX_-12" value="45 F" style="text;html=1;strokeColor=none;fillColor=none;align=center;verticalAlign=middle;whiteSpace=wrap;rounded=0;" parent="_APcH99rfO4cPpFRTlX_-1" vertex="1">
                    <mxGeometry x="323" y="290" width="60" height="30" as="geometry"/>
                </mxCell>
                <mxCell id="_APcH99rfO4cPpFRTlX_-19" value="Cloudy" style="text;html=1;strokeColor=none;fillColor=none;align=center;verticalAlign=middle;whiteSpace=wrap;rounded=0;" parent="_APcH99rfO4cPpFRTlX_-1" vertex="1">
                    <mxGeometry x="323" y="310" width="60" height="30" as="geometry"/>
                </mxCell>
                <mxCell id="_APcH99rfO4cPpFRTlX_-8" value="Regardless of what you use to search, the result will show the city name, current time,&lt;br&gt;temperature, and weather condition" style="strokeWidth=1;shadow=0;dashed=0;align=center;html=1;shape=mxgraph.mockup.text.stickyNote2;fontColor=#666666;mainText=;fontSize=17;whiteSpace=wrap;fillColor=#ffffcc;strokeColor=#F62E00;" parent="1" vertex="1">
                    <mxGeometry x="750" y="680" width="280" height="370" as="geometry"/>
                </mxCell>
            </root>
        </mxGraphModel>
    </diagram>
    <diagram id="SgDhs-S4Cer4wRWOSKyW" name="Workflow">
        <mxGraphModel dx="799" dy="481" grid="1" gridSize="10" guides="1" tooltips="1" connect="1" arrows="1" fold="1" page="1" pageScale="1" pageWidth="850" pageHeight="1100" math="0" shadow="0">
            <root>
                <mxCell id="0"/>
                <mxCell id="1" parent="0"/>
                <mxCell id="i5BDVosRPAYsbfPDRrz_-18" value="" style="rounded=0;whiteSpace=wrap;html=1;" parent="1" vertex="1">
                    <mxGeometry x="480" y="40" width="120" height="400" as="geometry"/>
                </mxCell>
                <mxCell id="bG5SZOb9FehxrQIAOeUT-2" value="Pass input to" style="edgeStyle=orthogonalEdgeStyle;rounded=0;orthogonalLoop=1;jettySize=auto;html=1;entryX=0;entryY=0.5;entryDx=0;entryDy=0;" parent="1" source="bG5SZOb9FehxrQIAOeUT-1" target="i5BDVosRPAYsbfPDRrz_-19" edge="1">
                    <mxGeometry relative="1" as="geometry">
                        <mxPoint x="260" y="160" as="targetPoint"/>
                    </mxGeometry>
                </mxCell>
                <mxCell id="bG5SZOb9FehxrQIAOeUT-1" value="User starts typing in search box" style="rounded=1;whiteSpace=wrap;html=1;fillColor=#dae8fc;strokeColor=#6c8ebf;" parent="1" vertex="1">
                    <mxGeometry x="20" y="130" width="120" height="60" as="geometry"/>
                </mxCell>
                <mxCell id="i5BDVosRPAYsbfPDRrz_-3" style="edgeStyle=orthogonalEdgeStyle;rounded=0;orthogonalLoop=1;jettySize=auto;html=1;exitX=1;exitY=0.5;exitDx=0;exitDy=0;entryX=0;entryY=0.5;entryDx=0;entryDy=0;" parent="1" target="i5BDVosRPAYsbfPDRrz_-13" edge="1">
                    <mxGeometry relative="1" as="geometry">
                        <mxPoint x="520" y="80" as="targetPoint"/>
                        <mxPoint x="340" y="160" as="sourcePoint"/>
                        <Array as="points">
                            <mxPoint x="340" y="80"/>
                            <mxPoint x="460" y="80"/>
                            <mxPoint x="460" y="120"/>
                        </Array>
                    </mxGeometry>
                </mxCell>
                <mxCell id="i5BDVosRPAYsbfPDRrz_-11" value="City (default)" style="edgeLabel;html=1;align=center;verticalAlign=middle;resizable=0;points=[];" parent="i5BDVosRPAYsbfPDRrz_-3" vertex="1" connectable="0">
                    <mxGeometry x="0.2929" relative="1" as="geometry">
                        <mxPoint x="-43" as="offset"/>
                    </mxGeometry>
                </mxCell>
                <mxCell id="i5BDVosRPAYsbfPDRrz_-5" style="edgeStyle=orthogonalEdgeStyle;rounded=0;orthogonalLoop=1;jettySize=auto;html=1;entryX=0;entryY=0.5;entryDx=0;entryDy=0;" parent="1" target="i5BDVosRPAYsbfPDRrz_-13" edge="1">
                    <mxGeometry relative="1" as="geometry">
                        <mxPoint x="520" y="160" as="targetPoint"/>
                        <mxPoint x="340" y="160" as="sourcePoint"/>
                        <Array as="points">
                            <mxPoint x="460" y="160"/>
                            <mxPoint x="460" y="120"/>
                        </Array>
                    </mxGeometry>
                </mxCell>
                <mxCell id="i5BDVosRPAYsbfPDRrz_-12" value="Zip Code" style="edgeLabel;html=1;align=center;verticalAlign=middle;resizable=0;points=[];" parent="i5BDVosRPAYsbfPDRrz_-5" vertex="1" connectable="0">
                    <mxGeometry x="-0.01" y="-2" relative="1" as="geometry">
                        <mxPoint x="-39" y="-2" as="offset"/>
                    </mxGeometry>
                </mxCell>
                <mxCell id="i5BDVosRPAYsbfPDRrz_-6" value="Lat/Long" style="edgeStyle=orthogonalEdgeStyle;rounded=0;orthogonalLoop=1;jettySize=auto;html=1;entryX=0;entryY=0.5;entryDx=0;entryDy=0;exitX=1;exitY=0.5;exitDx=0;exitDy=0;" parent="1" source="i5BDVosRPAYsbfPDRrz_-19" target="i5BDVosRPAYsbfPDRrz_-14" edge="1">
                    <mxGeometry x="0.2308" relative="1" as="geometry">
                        <mxPoint x="520" y="240" as="targetPoint"/>
                        <mxPoint x="340" y="160" as="sourcePoint"/>
                        <Array as="points">
                            <mxPoint x="340" y="160"/>
                            <mxPoint x="340" y="240"/>
                        </Array>
                        <mxPoint as="offset"/>
                    </mxGeometry>
                </mxCell>
                <mxCell id="i5BDVosRPAYsbfPDRrz_-15" style="edgeStyle=orthogonalEdgeStyle;rounded=0;orthogonalLoop=1;jettySize=auto;html=1;entryX=0.5;entryY=0;entryDx=0;entryDy=0;" parent="1" source="i5BDVosRPAYsbfPDRrz_-13" target="i5BDVosRPAYsbfPDRrz_-20" edge="1">
                    <mxGeometry relative="1" as="geometry">
                        <mxPoint x="760" y="200" as="targetPoint"/>
                    </mxGeometry>
                </mxCell>
                <mxCell id="HQ316WdOAUxfbGAsH-Dm-1" value="API&lt;br&gt;&amp;nbsp;Response" style="edgeLabel;html=1;align=center;verticalAlign=middle;resizable=0;points=[];" parent="i5BDVosRPAYsbfPDRrz_-15" vertex="1" connectable="0">
                    <mxGeometry x="0.16" y="-3" relative="1" as="geometry">
                        <mxPoint x="-68" y="-3" as="offset"/>
                    </mxGeometry>
                </mxCell>
                <mxCell id="i5BDVosRPAYsbfPDRrz_-13" value="Direct Geocode" style="rhombus;whiteSpace=wrap;html=1;fillColor=#fff2cc;strokeColor=#d6b656;" parent="1" vertex="1">
                    <mxGeometry x="500" y="80" width="80" height="80" as="geometry"/>
                </mxCell>
                <mxCell id="i5BDVosRPAYsbfPDRrz_-16" style="edgeStyle=orthogonalEdgeStyle;rounded=0;orthogonalLoop=1;jettySize=auto;html=1;entryX=0;entryY=0.5;entryDx=0;entryDy=0;" parent="1" source="i5BDVosRPAYsbfPDRrz_-14" target="i5BDVosRPAYsbfPDRrz_-20" edge="1">
                    <mxGeometry relative="1" as="geometry">
                        <mxPoint x="720" y="240" as="targetPoint"/>
                    </mxGeometry>
                </mxCell>
                <mxCell id="HQ316WdOAUxfbGAsH-Dm-2" value="API&lt;br&gt;Response" style="edgeLabel;html=1;align=center;verticalAlign=middle;resizable=0;points=[];" parent="i5BDVosRPAYsbfPDRrz_-16" vertex="1" connectable="0">
                    <mxGeometry x="0.325" y="-2" relative="1" as="geometry">
                        <mxPoint x="-13" y="-2" as="offset"/>
                    </mxGeometry>
                </mxCell>
                <mxCell id="i5BDVosRPAYsbfPDRrz_-14" value="Reverse Geocode" style="rhombus;whiteSpace=wrap;html=1;fillColor=#fff2cc;strokeColor=#d6b656;" parent="1" vertex="1">
                    <mxGeometry x="500" y="200" width="80" height="80" as="geometry"/>
                </mxCell>
                <mxCell id="i5BDVosRPAYsbfPDRrz_-17" value="Weather API" style="text;html=1;strokeColor=none;fillColor=none;align=center;verticalAlign=middle;whiteSpace=wrap;rounded=0;" parent="1" vertex="1">
                    <mxGeometry x="510" y="40" width="60" height="30" as="geometry"/>
                </mxCell>
                <mxCell id="i5BDVosRPAYsbfPDRrz_-19" value="Regex Filter" style="ellipse;whiteSpace=wrap;html=1;aspect=fixed;fillColor=#ffe6cc;strokeColor=#d79b00;" parent="1" vertex="1">
                    <mxGeometry x="240" y="120" width="80" height="80" as="geometry"/>
                </mxCell>
                <mxCell id="i5BDVosRPAYsbfPDRrz_-21" style="edgeStyle=orthogonalEdgeStyle;rounded=0;orthogonalLoop=1;jettySize=auto;html=1;entryX=0.5;entryY=0;entryDx=0;entryDy=0;exitX=0.5;exitY=1;exitDx=0;exitDy=0;" parent="1" source="i5BDVosRPAYsbfPDRrz_-20" target="i5BDVosRPAYsbfPDRrz_-22" edge="1">
                    <mxGeometry relative="1" as="geometry">
                        <mxPoint x="779.5" y="430" as="targetPoint"/>
                        <mxPoint x="779.5" y="340" as="sourcePoint"/>
                        <Array as="points"/>
                    </mxGeometry>
                </mxCell>
                <mxCell id="HQ316WdOAUxfbGAsH-Dm-3" value="List of locations" style="edgeLabel;html=1;align=center;verticalAlign=middle;resizable=0;points=[];" parent="i5BDVosRPAYsbfPDRrz_-21" vertex="1" connectable="0">
                    <mxGeometry x="0.1167" y="-2" relative="1" as="geometry">
                        <mxPoint x="2" y="-8" as="offset"/>
                    </mxGeometry>
                </mxCell>
                <mxCell id="i5BDVosRPAYsbfPDRrz_-20" value="Result Converter" style="ellipse;whiteSpace=wrap;html=1;aspect=fixed;fillColor=#ffe6cc;strokeColor=#d79b00;" parent="1" vertex="1">
                    <mxGeometry x="740" y="200" width="80" height="80" as="geometry"/>
                </mxCell>
                <mxCell id="i5BDVosRPAYsbfPDRrz_-25" style="edgeStyle=orthogonalEdgeStyle;rounded=0;orthogonalLoop=1;jettySize=auto;html=1;entryX=1;entryY=0.5;entryDx=0;entryDy=0;exitX=0;exitY=0.5;exitDx=0;exitDy=0;" parent="1" source="3XgqBqIqJg3uq5hXArxP-1" target="i5BDVosRPAYsbfPDRrz_-26" edge="1">
                    <mxGeometry relative="1" as="geometry">
                        <mxPoint x="440" y="400" as="targetPoint"/>
                        <mxPoint x="440" y="400" as="sourcePoint"/>
                    </mxGeometry>
                </mxCell>
                <mxCell id="HQ316WdOAUxfbGAsH-Dm-4" value="Parse weather data" style="edgeLabel;html=1;align=center;verticalAlign=middle;resizable=0;points=[];" parent="i5BDVosRPAYsbfPDRrz_-25" vertex="1" connectable="0">
                    <mxGeometry x="0.1053" y="1" relative="1" as="geometry">
                        <mxPoint x="2" y="-1" as="offset"/>
                    </mxGeometry>
                </mxCell>
                <mxCell id="3XgqBqIqJg3uq5hXArxP-2" style="edgeStyle=orthogonalEdgeStyle;rounded=0;orthogonalLoop=1;jettySize=auto;html=1;exitX=0;exitY=0.5;exitDx=0;exitDy=0;entryX=1;entryY=0.5;entryDx=0;entryDy=0;" parent="1" source="i5BDVosRPAYsbfPDRrz_-22" target="3XgqBqIqJg3uq5hXArxP-1" edge="1">
                    <mxGeometry relative="1" as="geometry"/>
                </mxCell>
                <mxCell id="3XgqBqIqJg3uq5hXArxP-3" value="Chosen location&lt;br&gt;is sent to API" style="edgeLabel;html=1;align=center;verticalAlign=middle;resizable=0;points=[];" parent="3XgqBqIqJg3uq5hXArxP-2" vertex="1" connectable="0">
                    <mxGeometry x="-0.2714" relative="1" as="geometry">
                        <mxPoint x="-9" as="offset"/>
                    </mxGeometry>
                </mxCell>
                <mxCell id="i5BDVosRPAYsbfPDRrz_-22" value="Present options to end user &amp;amp; allow for selection" style="rounded=1;whiteSpace=wrap;html=1;fillColor=#dae8fc;strokeColor=#6c8ebf;" parent="1" vertex="1">
                    <mxGeometry x="720" y="330" width="120" height="60" as="geometry"/>
                </mxCell>
                <mxCell id="i5BDVosRPAYsbfPDRrz_-26" value="Display selection's current weather" style="ellipse;whiteSpace=wrap;html=1;aspect=fixed;fillColor=#d5e8d4;strokeColor=#82b366;" parent="1" vertex="1">
                    <mxGeometry x="180" y="310" width="100" height="100" as="geometry"/>
                </mxCell>
                <mxCell id="3XgqBqIqJg3uq5hXArxP-1" value="Current&lt;br&gt;Weather" style="rhombus;whiteSpace=wrap;html=1;fillColor=#fff2cc;strokeColor=#d6b656;" parent="1" vertex="1">
                    <mxGeometry x="500" y="320" width="80" height="80" as="geometry"/>
                </mxCell>
            </root>
        </mxGraphModel>
    </diagram>
</mxfile>
